# xmcd
#
# Track frame offsets:
# 150
# 17700
# 47850
# 92925
# 119475
# 154950
# 189300
# 212700
# 289575
#
# Disc length: 4245 seconds
#
#
# Revision: 2
# Processed by: cddbd v1.5.2PL0 Copyright (c) Steve Scherf et al.
# Submitted via: KELLER's_Musik_Katalog 2006 
#
DISCID=7f109309
DTITLE=TEN YEARS AFTER - Undead
DYEAR=2002
DGENRE=Bluesrock
TTITLE0=Rock Your Mama **
TTITLE1=Spoonful **
TTITLE2=I May Be Wrong, But I Won't Be Wrong Always *
TTITLE3=Summertime - Shantung Cabbage *
TTITLE4=Spider In Your Web *
TTITLE5=Woodchopper's Ball *
TTITLE6=Standing At The Crossroads **
TTITLE7=I Can't Keep From Crying, Sometimes - Extension On One Chord - I Can't Keep From Crying Sometimes **
TTITLE8=I'm Going Home *
EXTD=Label: DERAM\nBestellnummer: 8828992\nFirma: Universal Vertrieb\nEVOE: 1968\nBesetzung: Alvin Lee - guitar\nChick Churchill - organ\nLeo Lyons - electric bass\nRic Lee - drums\n\n\n Für freedb bereitgestelt von:\n    KELLER'S Musik-Katalog 2007 2
EXTD=007
EXTT0=
EXTT1=
EXTT2=
EXTT3=
EXTT4=
EXTT5=
EXTT6=
EXTT7=
EXTT8=
PLAYORDER=
